<svg width="10" height="16" viewBox="0 0 10 16" fill="none" xmlns="http://www.w3.org/2000/svg">
<path d="M7.34565 15.6834L0.23219 8.59103C0.147757 8.5066 0.0880914 8.41513 0.0531926 8.31662C0.0177309 8.21812 0 8.11258 0 8C0 7.88742 0.0177309 7.78188 0.0531926 7.68338C0.0880914 7.58487 0.147757 7.4934 0.23219 7.40897L7.34565 0.295514C7.54265 0.0985048 7.78892 0 8.08443 0C8.37995 0 8.63324 0.105541 8.84433 0.316623C9.05541 0.527704 9.16095 0.773967 9.16095 1.05541C9.16095 1.33685 9.05541 1.58311 8.84433 1.7942L2.63852 8L8.84433 14.2058C9.04134 14.4028 9.13984 14.6454 9.13984 14.9336C9.13984 15.2224 9.0343 15.4723 8.82322 15.6834C8.61214 15.8945 8.36587 16 8.08443 16C7.80299 16 7.55673 15.8945 7.34565 15.6834Z" fill="#6F489D"/>
</svg>
