<svg width="18" height="15" viewBox="0 0 18 15" fill="none" xmlns="http://www.w3.org/2000/svg">
<path d="M8.86091 4.73684L11.4545 7.23158V7.10526C11.4545 6.47712 11.1959 5.8747 10.7356 5.43054C10.2753 4.98637 9.65099 4.73684 9 4.73684H8.86091ZM5.34273 5.36842L6.61091 6.59211C6.57 6.7579 6.54545 6.92368 6.54545 7.10526C6.54545 7.73341 6.80406 8.33582 7.26437 8.77999C7.72469 9.22416 8.34901 9.47368 9 9.47368C9.18 9.47368 9.36 9.45 9.53182 9.41053L10.8 10.6342C10.2518 10.8947 9.64636 11.0526 9 11.0526C7.91502 11.0526 6.87448 10.6367 6.10729 9.89647C5.3401 9.1562 4.90909 8.15217 4.90909 7.10526C4.90909 6.48158 5.07273 5.89737 5.34273 5.36842ZM0.818182 1.00263L2.68364 2.80263L3.05182 3.15789C1.70182 4.18421 0.638182 5.52632 0 7.10526C1.41545 10.5711 4.90909 13.0263 9 13.0263C10.2682 13.0263 11.4791 12.7895 12.5836 12.3632L12.9355 12.6947L15.3245 15L16.3636 13.9974L1.85727 0M9 3.15789C10.085 3.15789 11.1255 3.57378 11.8927 4.31405C12.6599 5.05433 13.0909 6.05836 13.0909 7.10526C13.0909 7.61053 12.9845 8.1 12.7964 8.54211L15.1936 10.8553C16.4209 9.86842 17.4027 8.57368 18 7.10526C16.5845 3.63947 13.0909 1.18421 9 1.18421C7.85455 1.18421 6.75818 1.38158 5.72727 1.73684L7.50273 3.43421C7.96909 3.26053 8.46818 3.15789 9 3.15789Z" fill="#FBFBFB"/>
</svg>
