<svg width="20" height="14" viewBox="0 0 20 14" fill="none" xmlns="http://www.w3.org/2000/svg">
<path d="M10.0007 0.75C5.83398 0.75 2.27565 3.34167 0.833984 7C2.27565 10.6583 5.83398 13.25 10.0007 13.25C14.1673 13.25 17.7257 10.6583 19.1673 7C17.7257 3.34167 14.1673 0.75 10.0007 0.75ZM10.0007 11.1667C7.70065 11.1667 5.83398 9.3 5.83398 7C5.83398 4.7 7.70065 2.83333 10.0007 2.83333C12.3007 2.83333 14.1673 4.7 14.1673 7C14.1673 9.3 12.3007 11.1667 10.0007 11.1667ZM10.0007 4.5C8.61732 4.5 7.50065 5.61667 7.50065 7C7.50065 8.38333 8.61732 9.5 10.0007 9.5C11.384 9.5 12.5007 8.38333 12.5007 7C12.5007 5.61667 11.384 4.5 10.0007 4.5Z" fill="#FBFBFB"/>
</svg>
